<svg version="1.1" viewBox="0.0 0.0 600.0 371.0" fill="none" stroke="none" stroke-linecap="square" stroke-miterlimit="10" width="600" height="371" xmlns:xlink="http://www.w3.org/1999/xlink" xmlns="http://www.w3.org/2000/svg"><path fill="#ffffff" d="M0 0L600.0 0L600.0 371.0L0 371.0L0 0Z" fill-rule="nonzero"/><path fill="#e2e2e2" d="M173.8276 76.171C205.53836 39.574837 251.57634 18.55 300.0 18.55L300.0 102.025C275.78818 102.025 252.76918 112.537415 236.9138 130.8355Z" fill-rule="nonzero"/><path fill="#285f9f" d="M300.0 18.55C378.5288 18.55 446.44217 73.278046 463.13467 150.01222C479.82718 226.7464 440.78586 304.74103 369.35355 337.36307C297.92123 369.9851 213.4102 348.41495 166.34964 285.5494C119.28908 222.68385 122.402176 135.51912 173.8276 76.171L236.9138 130.8355C211.20108 160.50955 209.64455 204.09193 233.17482 235.5247C256.7051 266.9575 298.9606 277.74255 334.67676 261.43152C370.3929 245.12051 389.91357 206.1232 381.56732 167.75612C373.2211 129.38902 339.2644 102.025 300.0 102.025Z" fill-rule="nonzero"/><path fill="#757575" d="M26.096874 32.745716Q26.096874 33.995716 25.675 34.933216Q25.253124 35.85509 24.471874 36.35509Q23.70625 36.85509 22.675 36.85509Q21.675 36.85509 20.89375 36.35509Q20.1125 35.85509 19.675 34.94884Q19.253124 34.026966 19.2375 32.808216L19.2375 32.19884Q19.2375 30.964466 19.659374 30.026966Q20.096874 29.089466 20.878124 28.589466Q21.659374 28.073841 22.675 28.073841Q23.690624 28.073841 24.471874 28.573841Q25.253124 29.073841 25.675 30.011341Q26.096874 30.948841 26.096874 32.19884L26.096874 32.745716ZM24.9875 32.183216Q24.9875 30.667591 24.378124 29.855091Q23.76875 29.042591 22.675 29.042591Q21.596874 29.042591 20.9875 29.855091Q20.378124 30.667591 20.3625 32.10509L20.3625 32.745716Q20.3625 34.214466 20.971874 35.058216Q21.596874 35.88634 22.675 35.88634Q23.76875 35.88634 24.3625 35.10509Q24.971874 34.308216 24.9875 32.82384L24.9875 32.183216ZM28.39375 30.386341L28.425 31.183216Q29.159374 30.276966 30.33125 30.276966Q32.346874 30.276966 32.3625 32.54259L32.3625 36.73009L31.26875 36.73009L31.26875 32.526966Q31.26875 31.855091 30.95625 31.526966Q30.659374 31.198841 30.003124 31.198841Q29.471874 31.198841 29.065624 31.480091Q28.675 31.761341 28.45625 32.214466L28.45625 36.73009L27.378124 36.73009L27.378124 30.386341L28.39375 30.386341ZM35.55 36.73009L34.471874 36.73009L34.471874 27.730091L35.55 27.730091L35.55 36.73009ZM39.440624 35.13634L40.925 30.386341L42.08125 30.386341L39.534374 37.714466Q38.940624 39.29259 37.659374 39.29259L37.440624 39.276966L37.05 39.19884L37.05 38.32384L37.33125 38.339466Q37.89375 38.339466 38.190624 38.120716Q38.503124 37.901966 38.70625 37.308216L38.940624 36.651966L36.675 30.386341L37.8625 30.386341L39.440624 35.13634ZM50.284374 36.73009Q50.190624 36.54259 50.128124 36.058216Q49.378124 36.85509 48.33125 36.85509Q47.39375 36.85509 46.784374 36.32384Q46.190624 35.79259 46.190624 34.964466Q46.190624 33.98009 46.940624 33.433216Q47.690624 32.88634 49.065624 32.88634L50.1125 32.88634L50.1125 32.38634Q50.1125 31.823841 49.76875 31.495716Q49.440624 31.151966 48.76875 31.151966Q48.190624 31.151966 47.8 31.448841Q47.409374 31.730091 47.409374 32.151966L46.315624 32.151966Q46.315624 31.667591 46.64375 31.230091Q46.9875 30.792591 47.565624 30.542591Q48.14375 30.276966 48.83125 30.276966Q49.940624 30.276966 50.55 30.823841Q51.175 31.370716 51.20625 32.32384L51.20625 35.245716Q51.20625 36.120716 51.425 36.63634L51.425 36.73009L50.284374 36.73009ZM48.4875 35.901966Q49.003124 35.901966 49.45625 35.63634Q49.909374 35.370716 50.1125 34.94884L50.1125 33.651966L49.26875 33.651966Q47.26875 33.651966 47.26875 34.82384Q47.26875 35.32384 47.6125 35.620716Q47.95625 35.901966 48.4875 35.901966ZM56.909374 36.73009L56.909374 31.230091L55.909374 31.230091L55.909374 30.386341L56.909374 30.386341L56.909374 29.745716Q56.909374 28.714466 57.440624 28.167591Q57.9875 27.605091 58.9875 27.605091Q59.3625 27.605091 59.7375 27.698841L59.675 28.589466Q59.39375 28.526966 59.096874 28.526966Q58.565624 28.526966 58.26875 28.839466Q57.9875 29.151966 57.9875 29.714466L57.9875 30.386341L59.346874 30.386341L59.346874 31.230091L57.9875 31.230091L57.9875 36.73009L56.909374 36.73009ZM63.003124 36.85509Q61.70625 36.85509 60.89375 36.01134Q60.096874 35.151966 60.096874 33.73009L60.096874 33.54259Q60.096874 32.589466 60.45625 31.855091Q60.815624 31.105091 61.45625 30.698841Q62.1125 30.276966 62.8625 30.276966Q64.09688 30.276966 64.78438 31.089466Q65.47188 31.901966 65.47188 33.41759L65.47188 33.870716L61.175 33.870716Q61.20625 34.808216 61.721874 35.38634Q62.253124 35.964466 63.065624 35.964466Q63.628124 35.964466 64.01875 35.73009Q64.425 35.495716 64.7375 35.10509L65.39375 35.620716Q64.59688 36.85509 63.003124 36.85509ZM62.8625 31.167591Q62.20625 31.167591 61.753124 31.651966Q61.315624 32.120716 61.221874 32.98009L64.39375 32.98009L64.39375 32.901966Q64.34688 32.07384 63.940624 31.620716Q63.55 31.167591 62.8625 31.167591ZM71.9875 35.23009L73.20625 30.386341L74.28438 30.386341L72.44063 36.73009L71.56563 36.73009L70.01875 31.917591L68.51875 36.73009L67.64375 36.73009L65.8 30.386341L66.87813 30.386341L68.12813 35.13634L69.6125 30.386341L70.47188 30.386341L71.9875 35.23009ZM79.84688 28.855091L79.84688 30.386341L81.01875 30.386341L81.01875 31.230091L79.84688 31.230091L79.84688 35.151966Q79.84688 35.54259 80.00313 35.73009Q80.15938 35.91759 80.53438 35.91759Q80.72188 35.91759 81.05 35.85509L81.05 36.73009Q80.62813 36.85509 80.22188 36.85509Q79.50313 36.85509 79.12813 36.41759Q78.75313 35.964466 78.75313 35.151966L78.75313 31.230091L77.59688 31.230091L77.59688 30.386341L78.75313 30.386341L78.75313 28.855091L79.84688 28.855091ZM83.55 36.73009L82.47188 36.73009L82.47188 30.386341L83.55 30.386341L83.55 36.73009ZM82.37813 28.714466Q82.37813 28.448841 82.53438 28.261341Q82.70625 28.073841 83.01875 28.073841Q83.33125 28.073841 83.4875 28.261341Q83.65938 28.448841 83.65938 28.714466Q83.65938 28.964466 83.4875 29.151966Q83.33125 29.323841 83.01875 29.323841Q82.70625 29.323841 82.53438 29.151966Q82.37813 28.964466 82.37813 28.714466ZM86.39375 30.386341L86.425 31.089466Q87.1125 30.276966 88.3 30.276966Q89.62813 30.276966 90.1125 31.292591Q90.425 30.839466 90.925 30.558216Q91.44063 30.276966 92.12813 30.276966Q94.22188 30.276966 94.25313 32.48009L94.25313 36.73009L93.175 36.73009L93.175 32.54259Q93.175 31.870716 92.8625 31.542591Q92.55 31.198841 91.81563 31.198841Q91.20625 31.198841 90.8 31.558216Q90.40938 31.917591 90.34688 32.526966L90.34688 36.73009L89.26875 36.73009L89.26875 32.57384Q89.26875 31.198841 87.90938 31.198841Q86.84688 31.198841 86.45625 32.10509L86.45625 36.73009L85.3625 36.73009L85.3625 30.386341L86.39375 30.386341ZM99.00313 36.85509Q97.70625 36.85509 96.89375 36.01134Q96.09688 35.151966 96.09688 33.73009L96.09688 33.54259Q96.09688 32.589466 96.45625 31.855091Q96.81563 31.105091 97.45625 30.698841Q98.1125 30.276966 98.8625 30.276966Q100.09688 30.276966 100.78438 31.089466Q101.47188 31.901966 101.47188 33.41759L101.47188 33.870716L97.175 33.870716Q97.20625 34.808216 97.72188 35.38634Q98.25313 35.964466 99.06563 35.964466Q99.62813 35.964466 100.01875 35.73009Q100.425 35.495716 100.7375 35.10509L101.39375 35.620716Q100.59688 36.85509 99.00313 36.85509ZM98.8625 31.167591Q98.20625 31.167591 97.75313 31.651966Q97.31563 32.120716 97.22188 32.98009L100.39375 32.98009L100.39375 32.901966Q100.34688 32.07384 99.94063 31.620716Q99.55 31.167591 98.8625 31.167591ZM106.06563 35.04259Q106.06563 34.60509 105.72188 34.370716Q105.39375 34.120716 104.56563 33.94884Q103.75313 33.776966 103.26875 33.526966Q102.78438 33.276966 102.55 32.94884Q102.33125 32.60509 102.33125 32.13634Q102.33125 31.355091 102.9875 30.823841Q103.64375 30.276966 104.675 30.276966Q105.75313 30.276966 106.40938 30.839466Q107.08125 31.386341 107.08125 32.245716L106.00313 32.245716Q106.00313 31.808216 105.6125 31.495716Q105.2375 31.167591 104.675 31.167591Q104.08125 31.167591 103.7375 31.433216Q103.40938 31.683216 103.40938 32.089466Q103.40938 32.48009 103.72188 32.683216Q104.03438 32.88634 104.84688 33.07384Q105.65938 33.245716 106.15938 33.495716Q106.65938 33.745716 106.89375 34.10509Q107.14375 34.464466 107.14375 34.964466Q107.14375 35.82384 106.45625 36.339466Q105.78438 36.85509 104.70625 36.85509Q103.94063 36.85509 103.34688 36.589466Q102.76875 36.308216 102.44063 35.82384Q102.1125 35.339466 102.1125 34.776966L103.19063 34.776966Q103.22188 35.32384 103.62813 35.651966Q104.03438 35.964466 104.70625 35.964466Q105.31563 35.964466 105.69063 35.714466Q106.06563 35.464466 106.06563 35.04259ZM115.28438 36.73009Q115.19063 36.54259 115.12813 36.058216Q114.37813 36.85509 113.33125 36.85509Q112.39375 36.85509 111.78438 36.32384Q111.19063 35.79259 111.19063 34.964466Q111.19063 33.98009 111.94063 33.433216Q112.69063 32.88634 114.06563 32.88634L115.1125 32.88634L115.1125 32.38634Q115.1125 31.823841 114.76875 31.495716Q114.44063 31.151966 113.76875 31.151966Q113.19063 31.151966 112.8 31.448841Q112.40938 31.730091 112.40938 32.151966L111.31563 32.151966Q111.31563 31.667591 111.64375 31.230091Q111.9875 30.792591 112.56563 30.542591Q113.14375 30.276966 113.83125 30.276966Q114.94063 30.276966 115.55 30.823841Q116.175 31.370716 116.20625 32.32384L116.20625 35.245716Q116.20625 36.120716 116.425 36.63634L116.425 36.73009L115.28438 36.73009ZM113.4875 35.901966Q114.00313 35.901966 114.45625 35.63634Q114.90938 35.370716 115.1125 34.94884L115.1125 33.651966L114.26875 33.651966Q112.26875 33.651966 112.26875 34.82384Q112.26875 35.32384 112.6125 35.620716Q112.95625 35.901966 113.4875 35.901966Z" fill-rule="nonzero"/><path fill="#9e9e9e" d="M22.815624 54.73009L21.7375 54.73009L21.7375 47.51134L19.55 48.308216L19.55 47.32384L22.659374 46.151966L22.815624 46.151966L22.815624 54.73009ZM27.83125 49.933216L28.64375 49.933216Q29.425 49.91759 29.8625 49.526966Q30.3 49.13634 30.3 48.464466Q30.3 46.964466 28.8 46.964466Q28.096874 46.964466 27.675 47.370716Q27.26875 47.776966 27.26875 48.433216L26.175 48.433216Q26.175 47.41759 26.909374 46.745716Q27.659374 46.07384 28.8 46.07384Q30.003124 46.07384 30.690624 46.714466Q31.378124 47.35509 31.378124 48.495716Q31.378124 49.058216 31.01875 49.57384Q30.659374 50.089466 30.034374 50.35509Q30.7375 50.57384 31.1125 51.089466Q31.503124 51.60509 31.503124 52.35509Q31.503124 53.495716 30.753124 54.183216Q30.003124 54.85509 28.8 54.85509Q27.6125 54.85509 26.846874 54.19884Q26.096874 53.54259 26.096874 52.48009L27.190624 52.48009Q27.190624 53.151966 27.628124 53.558216Q28.065624 53.964466 28.815624 53.964466Q29.596874 53.964466 30.003124 53.558216Q30.425 53.13634 30.425 52.370716Q30.425 51.63634 29.971874 51.245716Q29.51875 50.839466 28.64375 50.82384L27.83125 50.82384L27.83125 49.933216ZM33.39375 54.16759Q33.39375 53.88634 33.55 53.69884Q33.721874 53.51134 34.05 53.51134Q34.39375 53.51134 34.565624 53.69884Q34.7375 53.88634 34.7375 54.16759Q34.7375 54.433216 34.565624 54.620716Q34.39375 54.79259 34.05 54.79259Q33.721874 54.79259 33.55 54.620716Q33.39375 54.433216 33.39375 54.16759ZM40.51875 46.19884L40.51875 47.10509L40.315624 47.10509Q39.05 47.13634 38.3 47.870716Q37.55 48.589466 37.425 49.901966Q38.1125 49.13634 39.26875 49.13634Q40.378124 49.13634 41.05 49.91759Q41.721874 50.69884 41.721874 51.94884Q41.721874 53.26134 41.003124 54.058216Q40.284374 54.85509 39.065624 54.85509Q37.846874 54.85509 37.08125 53.91759Q36.33125 52.964466 36.33125 51.48009L36.33125 51.07384Q36.33125 48.714466 37.33125 47.464466Q38.33125 46.214466 40.315624 46.19884L40.51875 46.19884ZM39.096874 50.04259Q38.534374 50.04259 38.065624 50.370716Q37.596874 50.69884 37.409374 51.214466L37.409374 51.60509Q37.409374 52.66759 37.878124 53.308216Q38.3625 53.94884 39.065624 53.94884Q39.8 53.94884 40.221874 53.41759Q40.64375 52.870716 40.64375 51.995716Q40.64375 51.120716 40.221874 50.589466Q39.8 50.04259 39.096874 50.04259ZM43.159374 47.839466Q43.159374 47.07384 43.64375 46.57384Q44.14375 46.07384 44.909374 46.07384Q45.690624 46.07384 46.175 46.57384Q46.659374 47.07384 46.659374 47.870716L46.659374 48.29259Q46.659374 49.058216 46.159374 49.558216Q45.675 50.04259 44.925 50.04259Q44.159374 50.04259 43.659374 49.558216Q43.159374 49.058216 43.159374 48.245716L43.159374 47.839466ZM43.971874 48.29259Q43.971874 48.745716 44.221874 49.04259Q44.4875 49.339466 44.925 49.339466Q45.346874 49.339466 45.596874 49.058216Q45.846874 48.76134 45.846874 48.26134L45.846874 47.839466Q45.846874 47.38634 45.596874 47.089466Q45.346874 46.776966 44.909374 46.776966Q44.471874 46.776966 44.221874 47.089466Q43.971874 47.38634 43.971874 47.85509L43.971874 48.29259ZM47.315624 52.63634Q47.315624 51.870716 47.8 51.38634Q48.3 50.88634 49.065624 50.88634Q49.83125 50.88634 50.315624 51.38634Q50.815624 51.870716 50.815624 52.683216L50.815624 53.089466Q50.815624 53.85509 50.33125 54.35509Q49.846874 54.85509 49.08125 54.85509Q48.315624 54.85509 47.815624 54.370716Q47.315624 53.870716 47.315624 53.058216L47.315624 52.63634ZM48.128124 53.089466Q48.128124 53.558216 48.378124 53.85509Q48.64375 54.151966 49.08125 54.151966Q49.503124 54.151966 49.753124 53.870716Q50.003124 53.57384 50.003124 53.07384L50.003124 52.63634Q50.003124 52.16759 49.7375 51.88634Q49.4875 51.589466 49.065624 51.589466Q48.64375 51.589466 48.378124 51.88634Q48.128124 52.16759 48.128124 52.66759L48.128124 53.089466ZM45.175 54.089466L44.55 53.69884L48.721874 47.026966L49.33125 47.41759L45.175 54.089466Z" fill-rule="nonzero"/><path stroke="#757575" stroke-width="1.0" stroke-linecap="butt" d="M18.55 41.23009L127.05 41.23009L234.11414 41.23009" fill-rule="nonzero"/><path fill="#9e9e9e" d="M236.11414 41.23009C236.11414 40.125523 235.2187 39.23009 234.11414 39.23009C233.00957 39.23009 232.11414 40.125523 232.11414 41.23009C232.11414 42.33466 233.00957 43.23009 234.11414 43.23009C235.2187 43.23009 236.11414 42.33466 236.11414 41.23009" fill-rule="nonzero"/><path fill="#757575" d="M486.45 316.73865L486.45 322.53552Q486.4344 323.73865 485.6844 324.5199Q484.9344 325.28552 483.65314 325.37927L483.34064 325.3949Q481.95 325.3949 481.10626 324.6449Q480.27814 323.87927 480.27814 322.55115L480.27814 316.73865L481.3875 316.73865L481.3875 322.5199Q481.3875 323.44177 481.8875 323.9574Q482.40314 324.47302 483.34064 324.47302Q484.3094 324.47302 484.8094 323.9574Q485.3094 323.44177 485.3094 322.5199L485.3094 316.73865L486.45 316.73865ZM491.96564 323.5824Q491.96564 323.1449 491.6219 322.91052Q491.29376 322.66052 490.46564 322.48865Q489.65314 322.31677 489.16876 322.06677Q488.6844 321.81677 488.45 321.48865Q488.23126 321.1449 488.23126 320.67615Q488.23126 319.8949 488.8875 319.36365Q489.54376 318.81677 490.575 318.81677Q491.65314 318.81677 492.3094 319.37927Q492.98126 319.92615 492.98126 320.78552L491.90314 320.78552Q491.90314 320.34802 491.5125 320.03552Q491.1375 319.7074 490.575 319.7074Q489.98126 319.7074 489.6375 319.97302Q489.3094 320.22302 489.3094 320.62927Q489.3094 321.0199 489.6219 321.22302Q489.9344 321.42615 490.7469 321.61365Q491.5594 321.78552 492.0594 322.03552Q492.5594 322.28552 492.79376 322.6449Q493.04376 323.00427 493.04376 323.50427Q493.04376 324.36365 492.35626 324.87927Q491.6844 325.3949 490.60626 325.3949Q489.84064 325.3949 489.2469 325.12927Q488.66876 324.84802 488.34064 324.36365Q488.0125 323.87927 488.0125 323.31677L489.09064 323.31677Q489.1219 323.86365 489.52814 324.19177Q489.9344 324.50427 490.60626 324.50427Q491.21564 324.50427 491.59064 324.25427Q491.96564 324.00427 491.96564 323.5824ZM496.90314 325.3949Q495.60626 325.3949 494.79376 324.55115Q493.9969 323.69177 493.9969 322.2699L493.9969 322.0824Q493.9969 321.12927 494.35626 320.3949Q494.71564 319.6449 495.35626 319.23865Q496.0125 318.81677 496.7625 318.81677Q497.9969 318.81677 498.6844 319.62927Q499.3719 320.44177 499.3719 321.9574L499.3719 322.41052L495.075 322.41052Q495.10626 323.34802 495.6219 323.92615Q496.15314 324.50427 496.96564 324.50427Q497.52814 324.50427 497.91876 324.2699Q498.325 324.03552 498.6375 323.6449L499.29376 324.16052Q498.4969 325.3949 496.90314 325.3949ZM496.7625 319.7074Q496.10626 319.7074 495.65314 320.19177Q495.21564 320.66052 495.1219 321.5199L498.29376 321.5199L498.29376 321.44177Q498.2469 320.61365 497.84064 320.16052Q497.45 319.7074 496.7625 319.7074ZM504.29376 318.92615L504.325 319.62927Q505.0125 318.81677 506.2 318.81677Q507.52814 318.81677 508.0125 319.8324Q508.325 319.37927 508.825 319.09802Q509.34064 318.81677 510.02814 318.81677Q512.1219 318.81677 512.15314 321.0199L512.15314 325.2699L511.075 325.2699L511.075 321.0824Q511.075 320.41052 510.7625 320.0824Q510.45 319.73865 509.71564 319.73865Q509.10626 319.73865 508.7 320.09802Q508.3094 320.4574 508.2469 321.06677L508.2469 325.2699L507.16876 325.2699L507.16876 321.11365Q507.16876 319.73865 505.8094 319.73865Q504.7469 319.73865 504.35626 320.6449L504.35626 325.2699L503.2625 325.2699L503.2625 318.92615L504.29376 318.92615ZM518.1844 324.6449Q517.5594 325.3949 516.325 325.3949Q515.3094 325.3949 514.77814 324.80115Q514.2469 324.2074 514.2469 323.05115L514.2469 318.92615L515.325 318.92615L515.325 323.0199Q515.325 324.47302 516.4969 324.47302Q517.7469 324.47302 518.15314 323.53552L518.15314 318.92615L519.2469 318.92615L519.2469 325.2699L518.21564 325.2699L518.1844 324.6449ZM524.96564 323.5824Q524.96564 323.1449 524.6219 322.91052Q524.29376 322.66052 523.46564 322.48865Q522.65314 322.31677 522.16876 322.06677Q521.6844 321.81677 521.45 321.48865Q521.23126 321.1449 521.23126 320.67615Q521.23126 319.8949 521.8875 319.36365Q522.54376 318.81677 523.575 318.81677Q524.65314 318.81677 525.3094 319.37927Q525.98126 319.92615 525.98126 320.78552L524.90314 320.78552Q524.90314 320.34802 524.5125 320.03552Q524.1375 319.7074 523.575 319.7074Q522.98126 319.7074 522.6375 319.97302Q522.3094 320.22302 522.3094 320.62927Q522.3094 321.0199 522.6219 321.22302Q522.9344 321.42615 523.7469 321.61365Q524.5594 321.78552 525.0594 322.03552Q525.5594 322.28552 525.79376 322.6449Q526.04376 323.00427 526.04376 323.50427Q526.04376 324.36365 525.35626 324.87927Q524.6844 325.3949 523.60626 325.3949Q522.84064 325.3949 522.2469 325.12927Q521.66876 324.84802 521.34064 324.36365Q521.0125 323.87927 521.0125 323.31677L522.09064 323.31677Q522.1219 323.86365 522.52814 324.19177Q522.9344 324.50427 523.60626 324.50427Q524.21564 324.50427 524.59064 324.25427Q524.96564 324.00427 524.96564 323.5824ZM528.45 325.2699L527.3719 325.2699L527.3719 318.92615L528.45 318.92615L528.45 325.2699ZM527.27814 317.25427Q527.27814 316.98865 527.4344 316.80115Q527.60626 316.61365 527.91876 316.61365Q528.23126 316.61365 528.3875 316.80115Q528.5594 316.98865 528.5594 317.25427Q528.5594 317.50427 528.3875 317.69177Q528.23126 317.86365 527.91876 317.86365Q527.60626 317.86365 527.4344 317.69177Q527.27814 317.50427 527.27814 317.25427ZM532.8094 324.50427Q533.3875 324.50427 533.825 324.16052Q534.2625 323.80115 534.3094 323.2699L535.34064 323.2699Q535.3094 323.81677 534.95 324.31677Q534.60626 324.80115 534.02814 325.09802Q533.46564 325.3949 532.8094 325.3949Q531.5125 325.3949 530.7469 324.53552Q529.9969 323.66052 529.9969 322.16052L529.9969 321.97302Q529.9969 321.05115 530.325 320.3324Q530.66876 319.61365 531.29376 319.22302Q531.9344 318.81677 532.8094 318.81677Q533.8719 318.81677 534.575 319.4574Q535.29376 320.0824 535.34064 321.11365L534.3094 321.11365Q534.2625 320.48865 533.84064 320.09802Q533.41876 319.7074 532.8094 319.7074Q531.98126 319.7074 531.52814 320.30115Q531.075 320.8949 531.075 322.0199L531.075 322.22302Q531.075 323.31677 531.52814 323.91052Q531.98126 324.50427 532.8094 324.50427ZM542.96564 323.5824Q542.96564 323.1449 542.6219 322.91052Q542.29376 322.66052 541.46564 322.48865Q540.65314 322.31677 540.16876 322.06677Q539.6844 321.81677 539.45 321.48865Q539.23126 321.1449 539.23126 320.67615Q539.23126 319.8949 539.8875 319.36365Q540.54376 318.81677 541.575 318.81677Q542.65314 318.81677 543.3094 319.37927Q543.98126 319.92615 543.98126 320.78552L542.90314 320.78552Q542.90314 320.34802 542.5125 320.03552Q542.1375 319.7074 541.575 319.7074Q540.98126 319.7074 540.6375 319.97302Q540.3094 320.22302 540.3094 320.62927Q540.3094 321.0199 540.6219 321.22302Q540.9344 321.42615 541.7469 321.61365Q542.5594 321.78552 543.0594 322.03552Q543.5594 322.28552 543.79376 322.6449Q544.04376 323.00427 544.04376 323.50427Q544.04376 324.36365 543.35626 324.87927Q542.6844 325.3949 541.60626 325.3949Q540.84064 325.3949 540.2469 325.12927Q539.66876 324.84802 539.34064 324.36365Q539.0125 323.87927 539.0125 323.31677L540.09064 323.31677Q540.1219 323.86365 540.52814 324.19177Q540.9344 324.50427 541.60626 324.50427Q542.21564 324.50427 542.59064 324.25427Q542.96564 324.00427 542.96564 323.5824ZM547.90314 325.3949Q546.60626 325.3949 545.79376 324.55115Q544.9969 323.69177 544.9969 322.2699L544.9969 322.0824Q544.9969 321.12927 545.35626 320.3949Q545.71564 319.6449 546.35626 319.23865Q547.0125 318.81677 547.7625 318.81677Q548.9969 318.81677 549.6844 319.62927Q550.3719 320.44177 550.3719 321.9574L550.3719 322.41052L546.075 322.41052Q546.10626 323.34802 546.6219 323.92615Q547.15314 324.50427 547.96564 324.50427Q548.52814 324.50427 548.91876 324.2699Q549.325 324.03552 549.6375 323.6449L550.29376 324.16052Q549.4969 325.3949 547.90314 325.3949ZM547.7625 319.7074Q547.10626 319.7074 546.65314 320.19177Q546.21564 320.66052 546.1219 321.5199L549.29376 321.5199L549.29376 321.44177Q549.2469 320.61365 548.84064 320.16052Q548.45 319.7074 547.7625 319.7074ZM554.34064 319.8949Q554.09064 319.86365 553.8094 319.86365Q552.73126 319.86365 552.35626 320.7699L552.35626 325.2699L551.27814 325.2699L551.27814 318.92615L552.325 318.92615L552.34064 319.66052Q552.8719 318.81677 553.85626 318.81677Q554.16876 318.81677 554.34064 318.8949L554.34064 319.8949ZM557.35626 323.80115L558.9344 318.92615L560.04376 318.92615L557.7625 325.2699L556.9344 325.2699L554.6375 318.92615L555.7469 318.92615L557.35626 323.80115ZM562.45 325.2699L561.3719 325.2699L561.3719 318.92615L562.45 318.92615L562.45 325.2699ZM561.27814 317.25427Q561.27814 316.98865 561.4344 316.80115Q561.60626 316.61365 561.91876 316.61365Q562.23126 316.61365 562.3875 316.80115Q562.5594 316.98865 562.5594 317.25427Q562.5594 317.50427 562.3875 317.69177Q562.23126 317.86365 561.91876 317.86365Q561.60626 317.86365 561.4344 317.69177Q561.27814 317.50427 561.27814 317.25427ZM566.8094 324.50427Q567.3875 324.50427 567.825 324.16052Q568.2625 323.80115 568.3094 323.2699L569.34064 323.2699Q569.3094 323.81677 568.95 324.31677Q568.60626 324.80115 568.02814 325.09802Q567.46564 325.3949 566.8094 325.3949Q565.5125 325.3949 564.7469 324.53552Q563.9969 323.66052 563.9969 322.16052L563.9969 321.97302Q563.9969 321.05115 564.325 320.3324Q564.66876 319.61365 565.29376 319.22302Q565.9344 318.81677 566.8094 318.81677Q567.8719 318.81677 568.575 319.4574Q569.29376 320.0824 569.34064 321.11365L568.3094 321.11365Q568.2625 320.48865 567.84064 320.09802Q567.41876 319.7074 566.8094 319.7074Q565.98126 319.7074 565.52814 320.30115Q565.075 320.8949 565.075 322.0199L565.075 322.22302Q565.075 323.31677 565.52814 323.91052Q565.98126 324.50427 566.8094 324.50427ZM572.90314 325.3949Q571.60626 325.3949 570.79376 324.55115Q569.9969 323.69177 569.9969 322.2699L569.9969 322.0824Q569.9969 321.12927 570.35626 320.3949Q570.71564 319.6449 571.35626 319.23865Q572.0125 318.81677 572.7625 318.81677Q573.9969 318.81677 574.6844 319.62927Q575.3719 320.44177 575.3719 321.9574L575.3719 322.41052L571.075 322.41052Q571.10626 323.34802 571.6219 323.92615Q572.15314 324.50427 572.96564 324.50427Q573.52814 324.50427 573.91876 324.2699Q574.325 324.03552 574.6375 323.6449L575.29376 324.16052Q574.4969 325.3949 572.90314 325.3949ZM572.7625 319.7074Q572.10626 319.7074 571.65314 320.19177Q571.21564 320.66052 571.1219 321.5199L574.29376 321.5199L574.29376 321.44177Q574.2469 320.61365 573.84064 320.16052Q573.45 319.7074 572.7625 319.7074ZM579.96564 323.5824Q579.96564 323.1449 579.6219 322.91052Q579.29376 322.66052 578.46564 322.48865Q577.65314 322.31677 577.16876 322.06677Q576.6844 321.81677 576.45 321.48865Q576.23126 321.1449 576.23126 320.67615Q576.23126 319.8949 576.8875 319.36365Q577.54376 318.81677 578.575 318.81677Q579.65314 318.81677 580.3094 319.37927Q580.98126 319.92615 580.98126 320.78552L579.90314 320.78552Q579.90314 320.34802 579.5125 320.03552Q579.1375 319.7074 578.575 319.7074Q577.98126 319.7074 577.6375 319.97302Q577.3094 320.22302 577.3094 320.62927Q577.3094 321.0199 577.6219 321.22302Q577.9344 321.42615 578.7469 321.61365Q579.5594 321.78552 580.0594 322.03552Q580.5594 322.28552 580.79376 322.6449Q581.04376 323.00427 581.04376 323.50427Q581.04376 324.36365 580.35626 324.87927Q579.6844 325.3949 578.60626 325.3949Q577.84064 325.3949 577.2469 325.12927Q576.66876 324.84802 576.34064 324.36365Q576.0125 323.87927 576.0125 323.31677L577.09064 323.31677Q577.1219 323.86365 577.52814 324.19177Q577.9344 324.50427 578.60626 324.50427Q579.21564 324.50427 579.59064 324.25427Q579.96564 324.00427 579.96564 323.5824Z" fill-rule="nonzero"/><path fill="#9e9e9e" d="M554.34064 336.9574Q554.34064 337.59802 553.9969 338.09802Q553.65314 338.59802 553.09064 338.87927Q553.7469 339.16052 554.1375 339.72302Q554.52814 340.2699 554.52814 340.97302Q554.52814 342.06677 553.77814 342.73865Q553.04376 343.3949 551.825 343.3949Q550.59064 343.3949 549.84064 342.73865Q549.10626 342.06677 549.10626 340.97302Q549.10626 340.2699 549.48126 339.72302Q549.85626 339.16052 550.52814 338.87927Q549.96564 338.59802 549.6375 338.09802Q549.3094 337.59802 549.3094 336.9574Q549.3094 335.87927 549.9969 335.25427Q550.6844 334.61365 551.825 334.61365Q552.95 334.61365 553.6375 335.25427Q554.34064 335.87927 554.34064 336.9574ZM553.45 340.94177Q553.45 340.22302 552.9969 339.78552Q552.54376 339.3324 551.8094 339.3324Q551.075 339.3324 550.6219 339.78552Q550.1844 340.22302 550.1844 340.9574Q550.1844 341.67615 550.6219 342.09802Q551.0594 342.50427 551.825 342.50427Q552.575 342.50427 553.0125 342.0824Q553.45 341.66052 553.45 340.94177ZM551.825 335.50427Q551.1844 335.50427 550.77814 335.91052Q550.3875 336.30115 550.3875 336.98865Q550.3875 337.62927 550.77814 338.03552Q551.16876 338.44177 551.8094 338.44177Q552.46564 338.44177 552.85626 338.03552Q553.2469 337.62927 553.2469 336.98865Q553.2469 336.3324 552.84064 335.92615Q552.4344 335.50427 551.825 335.50427ZM560.41876 334.73865L560.41876 335.6449L560.21564 335.6449Q558.95 335.67615 558.2 336.41052Q557.45 337.12927 557.325 338.44177Q558.0125 337.67615 559.16876 337.67615Q560.27814 337.67615 560.95 338.4574Q561.6219 339.23865 561.6219 340.48865Q561.6219 341.80115 560.90314 342.59802Q560.1844 343.3949 558.96564 343.3949Q557.7469 343.3949 556.98126 342.4574Q556.23126 341.50427 556.23126 340.0199L556.23126 339.61365Q556.23126 337.25427 557.23126 336.00427Q558.23126 334.75427 560.21564 334.73865L560.41876 334.73865ZM558.9969 338.5824Q558.4344 338.5824 557.96564 338.91052Q557.4969 339.23865 557.3094 339.75427L557.3094 340.1449Q557.3094 341.2074 557.77814 341.84802Q558.2625 342.48865 558.96564 342.48865Q559.7 342.48865 560.1219 341.9574Q560.54376 341.41052 560.54376 340.53552Q560.54376 339.66052 560.1219 339.12927Q559.7 338.5824 558.9969 338.5824ZM563.29376 342.7074Q563.29376 342.42615 563.45 342.23865Q563.6219 342.05115 563.95 342.05115Q564.29376 342.05115 564.46564 342.23865Q564.6375 342.42615 564.6375 342.7074Q564.6375 342.97302 564.46564 343.16052Q564.29376 343.3324 563.95 343.3324Q563.6219 343.3324 563.45 343.16052Q563.29376 342.97302 563.29376 342.7074ZM570.73126 340.41052L571.91876 340.41052L571.91876 341.28552L570.73126 341.28552L570.73126 343.2699L569.65314 343.2699L569.65314 341.28552L565.7625 341.28552L565.7625 340.6449L569.575 334.73865L570.73126 334.73865L570.73126 340.41052ZM566.9969 340.41052L569.65314 340.41052L569.65314 336.22302L569.5125 336.4574L566.9969 340.41052ZM573.0594 336.37927Q573.0594 335.61365 573.54376 335.11365Q574.04376 334.61365 574.8094 334.61365Q575.59064 334.61365 576.075 335.11365Q576.5594 335.61365 576.5594 336.41052L576.5594 336.8324Q576.5594 337.59802 576.0594 338.09802Q575.575 338.5824 574.825 338.5824Q574.0594 338.5824 573.5594 338.09802Q573.0594 337.59802 573.0594 336.78552L573.0594 336.37927ZM573.8719 336.8324Q573.8719 337.28552 574.1219 337.5824Q574.3875 337.87927 574.825 337.87927Q575.2469 337.87927 575.4969 337.59802Q575.7469 337.30115 575.7469 336.80115L575.7469 336.37927Q575.7469 335.92615 575.4969 335.62927Q575.2469 335.31677 574.8094 335.31677Q574.3719 335.31677 574.1219 335.62927Q573.8719 335.92615 573.8719 336.3949L573.8719 336.8324ZM577.21564 341.17615Q577.21564 340.41052 577.7 339.92615Q578.2 339.42615 578.96564 339.42615Q579.73126 339.42615 580.21564 339.92615Q580.71564 340.41052 580.71564 341.22302L580.71564 341.62927Q580.71564 342.3949 580.23126 342.8949Q579.7469 343.3949 578.98126 343.3949Q578.21564 343.3949 577.71564 342.91052Q577.21564 342.41052 577.21564 341.59802L577.21564 341.17615ZM578.02814 341.62927Q578.02814 342.09802 578.27814 342.3949Q578.54376 342.69177 578.98126 342.69177Q579.40314 342.69177 579.65314 342.41052Q579.90314 342.11365 579.90314 341.61365L579.90314 341.17615Q579.90314 340.7074 579.6375 340.42615Q579.3875 340.12927 578.96564 340.12927Q578.54376 340.12927 578.27814 340.42615Q578.02814 340.7074 578.02814 341.2074L578.02814 341.62927ZM575.075 342.62927L574.45 342.23865L578.6219 335.56677L579.23126 335.9574L575.075 342.62927Z" fill-rule="nonzero"/><path stroke="#757575" stroke-width="1.0" stroke-linecap="butt" d="M581.45 329.7699L472.95 329.7699L365.88586 329.7699" fill-rule="nonzero"/><path fill="#9e9e9e" d="M367.88586 329.7699C367.88586 328.66534 366.99042 327.7699 365.88586 327.7699C364.78128 327.7699 363.88586 328.66534 363.88586 329.7699C363.88586 330.87448 364.78128 331.7699 365.88586 331.7699C366.99042 331.7699 367.88586 330.87448 367.88586 329.7699" fill-rule="nonzero"/></svg>