<svg version="1.1" viewBox="0.0 0.0 600.0 371.0" fill="none" stroke="none" stroke-linecap="square" stroke-miterlimit="10" width="600" height="371" xmlns:xlink="http://www.w3.org/1999/xlink" xmlns="http://www.w3.org/2000/svg"><path fill="#ffffff" d="M0 0L600.0 0L600.0 371.0L0 371.0L0 0Z" fill-rule="nonzero"/><path fill="#e2e2e2" d="M134.74931 209.25946C127.8579 161.32867 142.11685 112.767166 173.8276 76.171C205.53836 39.574837 251.57634 18.55 300.0 18.55L300.0 102.025C275.78818 102.025 252.76918 112.537415 236.9138 130.8355C221.05843 149.13358 213.92896 173.41434 217.37465 197.37973Z" fill-rule="nonzero"/><path fill="#285f9f" d="M300.0 18.55C389.1156 18.55 462.5206 88.54154 466.7609 177.5562C471.0012 266.57086 404.5817 343.22305 315.8696 351.69403C227.15753 360.165 147.43178 297.468 134.74931 209.25946L217.37465 197.37973C223.7159 241.484 263.57877 272.83252 307.9348 268.59702C352.29083 264.36154 385.5006 226.03543 383.38046 181.5281C381.2603 137.02077 344.5578 102.025 300.0 102.025Z" fill-rule="nonzero"/><path fill="#757575" d="M26.096874 73.153076Q26.096874 74.403076 25.675 75.340576Q25.253124 76.26245 24.471874 76.76245Q23.70625 77.26245 22.675 77.26245Q21.675 77.26245 20.89375 76.76245Q20.1125 76.26245 19.675 75.3562Q19.253124 74.434326 19.2375 73.215576L19.2375 72.6062Q19.2375 71.371826 19.659374 70.434326Q20.096874 69.496826 20.878124 68.996826Q21.659374 68.4812 22.675 68.4812Q23.690624 68.4812 24.471874 68.9812Q25.253124 69.4812 25.675 70.4187Q26.096874 71.3562 26.096874 72.6062L26.096874 73.153076ZM24.9875 72.590576Q24.9875 71.07495 24.378124 70.26245Q23.76875 69.44995 22.675 69.44995Q21.596874 69.44995 20.9875 70.26245Q20.378124 71.07495 20.3625 72.51245L20.3625 73.153076Q20.3625 74.621826 20.971874 75.465576Q21.596874 76.2937 22.675 76.2937Q23.76875 76.2937 24.3625 75.51245Q24.971874 74.715576 24.9875 73.2312L24.9875 72.590576ZM28.39375 70.7937L28.425 71.590576Q29.159374 70.684326 30.33125 70.684326Q32.346874 70.684326 32.3625 72.94995L32.3625 77.13745L31.26875 77.13745L31.26875 72.934326Q31.26875 72.26245 30.95625 71.934326Q30.659374 71.6062 30.003124 71.6062Q29.471874 71.6062 29.065624 71.88745Q28.675 72.1687 28.45625 72.621826L28.45625 77.13745L27.378124 77.13745L27.378124 70.7937L28.39375 70.7937ZM35.55 77.13745L34.471874 77.13745L34.471874 68.13745L35.55 68.13745L35.55 77.13745ZM39.440624 75.5437L40.925 70.7937L42.08125 70.7937L39.534374 78.121826Q38.940624 79.69995 37.659374 79.69995L37.440624 79.684326L37.05 79.6062L37.05 78.7312L37.33125 78.746826Q37.89375 78.746826 38.190624 78.528076Q38.503124 78.309326 38.70625 77.715576L38.940624 77.059326L36.675 70.7937L37.8625 70.7937L39.440624 75.5437ZM50.284374 77.13745Q50.190624 76.94995 50.128124 76.465576Q49.378124 77.26245 48.33125 77.26245Q47.39375 77.26245 46.784374 76.7312Q46.190624 76.19995 46.190624 75.371826Q46.190624 74.38745 46.940624 73.840576Q47.690624 73.2937 49.065624 73.2937L50.1125 73.2937L50.1125 72.7937Q50.1125 72.2312 49.76875 71.903076Q49.440624 71.559326 48.76875 71.559326Q48.190624 71.559326 47.8 71.8562Q47.409374 72.13745 47.409374 72.559326L46.315624 72.559326Q46.315624 72.07495 46.64375 71.63745Q46.9875 71.19995 47.565624 70.94995Q48.14375 70.684326 48.83125 70.684326Q49.940624 70.684326 50.55 71.2312Q51.175 71.778076 51.20625 72.7312L51.20625 75.653076Q51.20625 76.528076 51.425 77.0437L51.425 77.13745L50.284374 77.13745ZM48.4875 76.309326Q49.003124 76.309326 49.45625 76.0437Q49.909374 75.778076 50.1125 75.3562L50.1125 74.059326L49.26875 74.059326Q47.26875 74.059326 47.26875 75.2312Q47.26875 75.7312 47.6125 76.028076Q47.95625 76.309326 48.4875 76.309326ZM56.909374 77.13745L56.909374 71.63745L55.909374 71.63745L55.909374 70.7937L56.909374 70.7937L56.909374 70.153076Q56.909374 69.121826 57.440624 68.57495Q57.9875 68.01245 58.9875 68.01245Q59.3625 68.01245 59.7375 68.1062L59.675 68.996826Q59.39375 68.934326 59.096874 68.934326Q58.565624 68.934326 58.26875 69.246826Q57.9875 69.559326 57.9875 70.121826L57.9875 70.7937L59.346874 70.7937L59.346874 71.63745L57.9875 71.63745L57.9875 77.13745L56.909374 77.13745ZM63.003124 77.26245Q61.70625 77.26245 60.89375 76.4187Q60.096874 75.559326 60.096874 74.13745L60.096874 73.94995Q60.096874 72.996826 60.45625 72.26245Q60.815624 71.51245 61.45625 71.1062Q62.1125 70.684326 62.8625 70.684326Q64.09688 70.684326 64.78438 71.496826Q65.47188 72.309326 65.47188 73.82495L65.47188 74.278076L61.175 74.278076Q61.20625 75.215576 61.721874 75.7937Q62.253124 76.371826 63.065624 76.371826Q63.628124 76.371826 64.01875 76.13745Q64.425 75.903076 64.7375 75.51245L65.39375 76.028076Q64.59688 77.26245 63.003124 77.26245ZM62.8625 71.57495Q62.20625 71.57495 61.753124 72.059326Q61.315624 72.528076 61.221874 73.38745L64.39375 73.38745L64.39375 73.309326Q64.34688 72.4812 63.940624 72.028076Q63.55 71.57495 62.8625 71.57495ZM71.9875 75.63745L73.20625 70.7937L74.28438 70.7937L72.44063 77.13745L71.56563 77.13745L70.01875 72.32495L68.51875 77.13745L67.64375 77.13745L65.8 70.7937L66.87813 70.7937L68.12813 75.5437L69.6125 70.7937L70.47188 70.7937L71.9875 75.63745ZM79.84688 69.26245L79.84688 70.7937L81.01875 70.7937L81.01875 71.63745L79.84688 71.63745L79.84688 75.559326Q79.84688 75.94995 80.00313 76.13745Q80.15938 76.32495 80.53438 76.32495Q80.72188 76.32495 81.05 76.26245L81.05 77.13745Q80.62813 77.26245 80.22188 77.26245Q79.50313 77.26245 79.12813 76.82495Q78.75313 76.371826 78.75313 75.559326L78.75313 71.63745L77.59688 71.63745L77.59688 70.7937L78.75313 70.7937L78.75313 69.26245L79.84688 69.26245ZM83.55 77.13745L82.47188 77.13745L82.47188 70.7937L83.55 70.7937L83.55 77.13745ZM82.37813 69.121826Q82.37813 68.8562 82.53438 68.6687Q82.70625 68.4812 83.01875 68.4812Q83.33125 68.4812 83.4875 68.6687Q83.65938 68.8562 83.65938 69.121826Q83.65938 69.371826 83.4875 69.559326Q83.33125 69.7312 83.01875 69.7312Q82.70625 69.7312 82.53438 69.559326Q82.37813 69.371826 82.37813 69.121826ZM86.39375 70.7937L86.425 71.496826Q87.1125 70.684326 88.3 70.684326Q89.62813 70.684326 90.1125 71.69995Q90.425 71.246826 90.925 70.965576Q91.44063 70.684326 92.12813 70.684326Q94.22188 70.684326 94.25313 72.88745L94.25313 77.13745L93.175 77.13745L93.175 72.94995Q93.175 72.278076 92.8625 71.94995Q92.55 71.6062 91.81563 71.6062Q91.20625 71.6062 90.8 71.965576Q90.40938 72.32495 90.34688 72.934326L90.34688 77.13745L89.26875 77.13745L89.26875 72.9812Q89.26875 71.6062 87.90938 71.6062Q86.84688 71.6062 86.45625 72.51245L86.45625 77.13745L85.3625 77.13745L85.3625 70.7937L86.39375 70.7937ZM99.00313 77.26245Q97.70625 77.26245 96.89375 76.4187Q96.09688 75.559326 96.09688 74.13745L96.09688 73.94995Q96.09688 72.996826 96.45625 72.26245Q96.81563 71.51245 97.45625 71.1062Q98.1125 70.684326 98.8625 70.684326Q100.09688 70.684326 100.78438 71.496826Q101.47188 72.309326 101.47188 73.82495L101.47188 74.278076L97.175 74.278076Q97.20625 75.215576 97.72188 75.7937Q98.25313 76.371826 99.06563 76.371826Q99.62813 76.371826 100.01875 76.13745Q100.425 75.903076 100.7375 75.51245L101.39375 76.028076Q100.59688 77.26245 99.00313 77.26245ZM98.8625 71.57495Q98.20625 71.57495 97.75313 72.059326Q97.31563 72.528076 97.22188 73.38745L100.39375 73.38745L100.39375 73.309326Q100.34688 72.4812 99.94063 72.028076Q99.55 71.57495 98.8625 71.57495ZM106.06563 75.44995Q106.06563 75.01245 105.72188 74.778076Q105.39375 74.528076 104.56563 74.3562Q103.75313 74.184326 103.26875 73.934326Q102.78438 73.684326 102.55 73.3562Q102.33125 73.01245 102.33125 72.5437Q102.33125 71.76245 102.9875 71.2312Q103.64375 70.684326 104.675 70.684326Q105.75313 70.684326 106.40938 71.246826Q107.08125 71.7937 107.08125 72.653076L106.00313 72.653076Q106.00313 72.215576 105.6125 71.903076Q105.2375 71.57495 104.675 71.57495Q104.08125 71.57495 103.7375 71.840576Q103.40938 72.090576 103.40938 72.496826Q103.40938 72.88745 103.72188 73.090576Q104.03438 73.2937 104.84688 73.4812Q105.65938 73.653076 106.15938 73.903076Q106.65938 74.153076 106.89375 74.51245Q107.14375 74.871826 107.14375 75.371826Q107.14375 76.2312 106.45625 76.746826Q105.78438 77.26245 104.70625 77.26245Q103.94063 77.26245 103.34688 76.996826Q102.76875 76.715576 102.44063 76.2312Q102.1125 75.746826 102.1125 75.184326L103.19063 75.184326Q103.22188 75.7312 103.62813 76.059326Q104.03438 76.371826 104.70625 76.371826Q105.31563 76.371826 105.69063 76.121826Q106.06563 75.871826 106.06563 75.44995ZM115.28438 77.13745Q115.19063 76.94995 115.12813 76.465576Q114.37813 77.26245 113.33125 77.26245Q112.39375 77.26245 111.78438 76.7312Q111.19063 76.19995 111.19063 75.371826Q111.19063 74.38745 111.94063 73.840576Q112.69063 73.2937 114.06563 73.2937L115.1125 73.2937L115.1125 72.7937Q115.1125 72.2312 114.76875 71.903076Q114.44063 71.559326 113.76875 71.559326Q113.19063 71.559326 112.8 71.8562Q112.40938 72.13745 112.40938 72.559326L111.31563 72.559326Q111.31563 72.07495 111.64375 71.63745Q111.9875 71.19995 112.56563 70.94995Q113.14375 70.684326 113.83125 70.684326Q114.94063 70.684326 115.55 71.2312Q116.175 71.778076 116.20625 72.7312L116.20625 75.653076Q116.20625 76.528076 116.425 77.0437L116.425 77.13745L115.28438 77.13745ZM113.4875 76.309326Q114.00313 76.309326 114.45625 76.0437Q114.90938 75.778076 115.1125 75.3562L115.1125 74.059326L114.26875 74.059326Q112.26875 74.059326 112.26875 75.2312Q112.26875 75.7312 112.6125 76.028076Q112.95625 76.309326 113.4875 76.309326Z" fill-rule="nonzero"/><path fill="#9e9e9e" d="M24.846874 95.13745L19.253124 95.13745L19.253124 94.3562L22.20625 91.07495Q22.8625 90.32495 23.1125 89.871826Q23.3625 89.403076 23.3625 88.903076Q23.3625 88.2312 22.95625 87.809326Q22.565624 87.371826 21.878124 87.371826Q21.08125 87.371826 20.628124 87.840576Q20.175 88.2937 20.175 89.121826L19.096874 89.121826Q19.096874 87.934326 19.846874 87.215576Q20.6125 86.4812 21.878124 86.4812Q23.08125 86.4812 23.76875 87.1062Q24.45625 87.7312 24.45625 88.778076Q24.45625 90.028076 22.846874 91.778076L20.565624 94.246826L24.846874 94.246826L24.846874 95.13745ZM31.76875 87.215576L28.2375 95.13745L27.096874 95.13745L30.6125 87.496826L26.003124 87.496826L26.003124 86.6062L31.76875 86.6062L31.76875 87.215576ZM33.39375 94.57495Q33.39375 94.2937 33.55 94.1062Q33.721874 93.9187 34.05 93.9187Q34.39375 93.9187 34.565624 94.1062Q34.7375 94.2937 34.7375 94.57495Q34.7375 94.840576 34.565624 95.028076Q34.39375 95.19995 34.05 95.19995Q33.721874 95.19995 33.55 95.028076Q33.39375 94.840576 33.39375 94.57495ZM37.83125 90.340576L38.64375 90.340576Q39.425 90.32495 39.8625 89.934326Q40.3 89.5437 40.3 88.871826Q40.3 87.371826 38.8 87.371826Q38.096874 87.371826 37.675 87.778076Q37.26875 88.184326 37.26875 88.840576L36.175 88.840576Q36.175 87.82495 36.909374 87.153076Q37.659374 86.4812 38.8 86.4812Q40.003124 86.4812 40.690624 87.121826Q41.378124 87.76245 41.378124 88.903076Q41.378124 89.465576 41.01875 89.9812Q40.659374 90.496826 40.034374 90.76245Q40.7375 90.9812 41.1125 91.496826Q41.503124 92.01245 41.503124 92.76245Q41.503124 93.903076 40.753124 94.590576Q40.003124 95.26245 38.8 95.26245Q37.6125 95.26245 36.846874 94.6062Q36.096874 93.94995 36.096874 92.88745L37.190624 92.88745Q37.190624 93.559326 37.628124 93.965576Q38.065624 94.371826 38.815624 94.371826Q39.596874 94.371826 40.003124 93.965576Q40.425 93.5437 40.425 92.778076Q40.425 92.0437 39.971874 91.653076Q39.51875 91.246826 38.64375 91.2312L37.83125 91.2312L37.83125 90.340576ZM43.159374 88.246826Q43.159374 87.4812 43.64375 86.9812Q44.14375 86.4812 44.909374 86.4812Q45.690624 86.4812 46.175 86.9812Q46.659374 87.4812 46.659374 88.278076L46.659374 88.69995Q46.659374 89.465576 46.159374 89.965576Q45.675 90.44995 44.925 90.44995Q44.159374 90.44995 43.659374 89.965576Q43.159374 89.465576 43.159374 88.653076L43.159374 88.246826ZM43.971874 88.69995Q43.971874 89.153076 44.221874 89.44995Q44.4875 89.746826 44.925 89.746826Q45.346874 89.746826 45.596874 89.465576Q45.846874 89.1687 45.846874 88.6687L45.846874 88.246826Q45.846874 87.7937 45.596874 87.496826Q45.346874 87.184326 44.909374 87.184326Q44.471874 87.184326 44.221874 87.496826Q43.971874 87.7937 43.971874 88.26245L43.971874 88.69995ZM47.315624 93.0437Q47.315624 92.278076 47.8 91.7937Q48.3 91.2937 49.065624 91.2937Q49.83125 91.2937 50.315624 91.7937Q50.815624 92.278076 50.815624 93.090576L50.815624 93.496826Q50.815624 94.26245 50.33125 94.76245Q49.846874 95.26245 49.08125 95.26245Q48.315624 95.26245 47.815624 94.778076Q47.315624 94.278076 47.315624 93.465576L47.315624 93.0437ZM48.128124 93.496826Q48.128124 93.965576 48.378124 94.26245Q48.64375 94.559326 49.08125 94.559326Q49.503124 94.559326 49.753124 94.278076Q50.003124 93.9812 50.003124 93.4812L50.003124 93.0437Q50.003124 92.57495 49.7375 92.2937Q49.4875 91.996826 49.065624 91.996826Q48.64375 91.996826 48.378124 92.2937Q48.128124 92.57495 48.128124 93.07495L48.128124 93.496826ZM45.175 94.496826L44.55 94.1062L48.721874 87.434326L49.33125 87.82495L45.175 94.496826Z" fill-rule="nonzero"/><path stroke="#757575" stroke-width="1.0" stroke-linecap="butt" d="M18.55 81.63745L127.05 81.63745L180.13623 81.63745" fill-rule="nonzero"/><path fill="#9e9e9e" d="M182.13623 81.63745C182.13623 80.53288 181.2408 79.63745 180.13623 79.63745C179.03166 79.63745 178.13623 80.53288 178.13623 81.63745C178.13623 82.74202 179.03166 83.63745 180.13623 83.63745C181.2408 83.63745 182.13623 82.74202 182.13623 81.63745" fill-rule="nonzero"/><path fill="#757575" d="M486.45 276.3313L486.45 282.12817Q486.4344 283.3313 485.6844 284.11255Q484.9344 284.87817 483.65314 284.97192L483.34064 284.98755Q481.95 284.98755 481.10626 284.23755Q480.27814 283.47192 480.27814 282.1438L480.27814 276.3313L481.3875 276.3313L481.3875 282.11255Q481.3875 283.03442 481.8875 283.55005Q482.40314 284.06567 483.34064 284.06567Q484.3094 284.06567 484.8094 283.55005Q485.3094 283.03442 485.3094 282.11255L485.3094 276.3313L486.45 276.3313ZM491.96564 283.17505Q491.96564 282.73755 491.6219 282.50317Q491.29376 282.25317 490.46564 282.0813Q489.65314 281.90942 489.16876 281.65942Q488.6844 281.40942 488.45 281.0813Q488.23126 280.73755 488.23126 280.2688Q488.23126 279.48755 488.8875 278.9563Q489.54376 278.40942 490.575 278.40942Q491.65314 278.40942 492.3094 278.97192Q492.98126 279.5188 492.98126 280.37817L491.90314 280.37817Q491.90314 279.94067 491.5125 279.62817Q491.1375 279.30005 490.575 279.30005Q489.98126 279.30005 489.6375 279.56567Q489.3094 279.81567 489.3094 280.22192Q489.3094 280.61255 489.6219 280.81567Q489.9344 281.0188 490.7469 281.2063Q491.5594 281.37817 492.0594 281.62817Q492.5594 281.87817 492.79376 282.23755Q493.04376 282.59692 493.04376 283.09692Q493.04376 283.9563 492.35626 284.47192Q491.6844 284.98755 490.60626 284.98755Q489.84064 284.98755 489.2469 284.72192Q488.66876 284.44067 488.34064 283.9563Q488.0125 283.47192 488.0125 282.90942L489.09064 282.90942Q489.1219 283.4563 489.52814 283.78442Q489.9344 284.09692 490.60626 284.09692Q491.21564 284.09692 491.59064 283.84692Q491.96564 283.59692 491.96564 283.17505ZM496.90314 284.98755Q495.60626 284.98755 494.79376 284.1438Q493.9969 283.28442 493.9969 281.86255L493.9969 281.67505Q493.9969 280.72192 494.35626 279.98755Q494.71564 279.23755 495.35626 278.8313Q496.0125 278.40942 496.7625 278.40942Q497.9969 278.40942 498.6844 279.22192Q499.3719 280.03442 499.3719 281.55005L499.3719 282.00317L495.075 282.00317Q495.10626 282.94067 495.6219 283.5188Q496.15314 284.09692 496.96564 284.09692Q497.52814 284.09692 497.91876 283.86255Q498.325 283.62817 498.6375 283.23755L499.29376 283.75317Q498.4969 284.98755 496.90314 284.98755ZM496.7625 279.30005Q496.10626 279.30005 495.65314 279.78442Q495.21564 280.25317 495.1219 281.11255L498.29376 281.11255L498.29376 281.03442Q498.2469 280.2063 497.84064 279.75317Q497.45 279.30005 496.7625 279.30005ZM504.29376 278.5188L504.325 279.22192Q505.0125 278.40942 506.2 278.40942Q507.52814 278.40942 508.0125 279.42505Q508.325 278.97192 508.825 278.69067Q509.34064 278.40942 510.02814 278.40942Q512.1219 278.40942 512.15314 280.61255L512.15314 284.86255L511.075 284.86255L511.075 280.67505Q511.075 280.00317 510.7625 279.67505Q510.45 279.3313 509.71564 279.3313Q509.10626 279.3313 508.7 279.69067Q508.3094 280.05005 508.2469 280.65942L508.2469 284.86255L507.16876 284.86255L507.16876 280.7063Q507.16876 279.3313 505.8094 279.3313Q504.7469 279.3313 504.35626 280.23755L504.35626 284.86255L503.2625 284.86255L503.2625 278.5188L504.29376 278.5188ZM518.1844 284.23755Q517.5594 284.98755 516.325 284.98755Q515.3094 284.98755 514.77814 284.3938Q514.2469 283.80005 514.2469 282.6438L514.2469 278.5188L515.325 278.5188L515.325 282.61255Q515.325 284.06567 516.4969 284.06567Q517.7469 284.06567 518.15314 283.12817L518.15314 278.5188L519.2469 278.5188L519.2469 284.86255L518.21564 284.86255L518.1844 284.23755ZM524.96564 283.17505Q524.96564 282.73755 524.6219 282.50317Q524.29376 282.25317 523.46564 282.0813Q522.65314 281.90942 522.16876 281.65942Q521.6844 281.40942 521.45 281.0813Q521.23126 280.73755 521.23126 280.2688Q521.23126 279.48755 521.8875 278.9563Q522.54376 278.40942 523.575 278.40942Q524.65314 278.40942 525.3094 278.97192Q525.98126 279.5188 525.98126 280.37817L524.90314 280.37817Q524.90314 279.94067 524.5125 279.62817Q524.1375 279.30005 523.575 279.30005Q522.98126 279.30005 522.6375 279.56567Q522.3094 279.81567 522.3094 280.22192Q522.3094 280.61255 522.6219 280.81567Q522.9344 281.0188 523.7469 281.2063Q524.5594 281.37817 525.0594 281.62817Q525.5594 281.87817 525.79376 282.23755Q526.04376 282.59692 526.04376 283.09692Q526.04376 283.9563 525.35626 284.47192Q524.6844 284.98755 523.60626 284.98755Q522.84064 284.98755 522.2469 284.72192Q521.66876 284.44067 521.34064 283.9563Q521.0125 283.47192 521.0125 282.90942L522.09064 282.90942Q522.1219 283.4563 522.52814 283.78442Q522.9344 284.09692 523.60626 284.09692Q524.21564 284.09692 524.59064 283.84692Q524.96564 283.59692 524.96564 283.17505ZM528.45 284.86255L527.3719 284.86255L527.3719 278.5188L528.45 278.5188L528.45 284.86255ZM527.27814 276.84692Q527.27814 276.5813 527.4344 276.3938Q527.60626 276.2063 527.91876 276.2063Q528.23126 276.2063 528.3875 276.3938Q528.5594 276.5813 528.5594 276.84692Q528.5594 277.09692 528.3875 277.28442Q528.23126 277.4563 527.91876 277.4563Q527.60626 277.4563 527.4344 277.28442Q527.27814 277.09692 527.27814 276.84692ZM532.8094 284.09692Q533.3875 284.09692 533.825 283.75317Q534.2625 283.3938 534.3094 282.86255L535.34064 282.86255Q535.3094 283.40942 534.95 283.90942Q534.60626 284.3938 534.02814 284.69067Q533.46564 284.98755 532.8094 284.98755Q531.5125 284.98755 530.7469 284.12817Q529.9969 283.25317 529.9969 281.75317L529.9969 281.56567Q529.9969 280.6438 530.325 279.92505Q530.66876 279.2063 531.29376 278.81567Q531.9344 278.40942 532.8094 278.40942Q533.8719 278.40942 534.575 279.05005Q535.29376 279.67505 535.34064 280.7063L534.3094 280.7063Q534.2625 280.0813 533.84064 279.69067Q533.41876 279.30005 532.8094 279.30005Q531.98126 279.30005 531.52814 279.8938Q531.075 280.48755 531.075 281.61255L531.075 281.81567Q531.075 282.90942 531.52814 283.50317Q531.98126 284.09692 532.8094 284.09692ZM542.96564 283.17505Q542.96564 282.73755 542.6219 282.50317Q542.29376 282.25317 541.46564 282.0813Q540.65314 281.90942 540.16876 281.65942Q539.6844 281.40942 539.45 281.0813Q539.23126 280.73755 539.23126 280.2688Q539.23126 279.48755 539.8875 278.9563Q540.54376 278.40942 541.575 278.40942Q542.65314 278.40942 543.3094 278.97192Q543.98126 279.5188 543.98126 280.37817L542.90314 280.37817Q542.90314 279.94067 542.5125 279.62817Q542.1375 279.30005 541.575 279.30005Q540.98126 279.30005 540.6375 279.56567Q540.3094 279.81567 540.3094 280.22192Q540.3094 280.61255 540.6219 280.81567Q540.9344 281.0188 541.7469 281.2063Q542.5594 281.37817 543.0594 281.62817Q543.5594 281.87817 543.79376 282.23755Q544.04376 282.59692 544.04376 283.09692Q544.04376 283.9563 543.35626 284.47192Q542.6844 284.98755 541.60626 284.98755Q540.84064 284.98755 540.2469 284.72192Q539.66876 284.44067 539.34064 283.9563Q539.0125 283.47192 539.0125 282.90942L540.09064 282.90942Q540.1219 283.4563 540.52814 283.78442Q540.9344 284.09692 541.60626 284.09692Q542.21564 284.09692 542.59064 283.84692Q542.96564 283.59692 542.96564 283.17505ZM547.90314 284.98755Q546.60626 284.98755 545.79376 284.1438Q544.9969 283.28442 544.9969 281.86255L544.9969 281.67505Q544.9969 280.72192 545.35626 279.98755Q545.71564 279.23755 546.35626 278.8313Q547.0125 278.40942 547.7625 278.40942Q548.9969 278.40942 549.6844 279.22192Q550.3719 280.03442 550.3719 281.55005L550.3719 282.00317L546.075 282.00317Q546.10626 282.94067 546.6219 283.5188Q547.15314 284.09692 547.96564 284.09692Q548.52814 284.09692 548.91876 283.86255Q549.325 283.62817 549.6375 283.23755L550.29376 283.75317Q549.4969 284.98755 547.90314 284.98755ZM547.7625 279.30005Q547.10626 279.30005 546.65314 279.78442Q546.21564 280.25317 546.1219 281.11255L549.29376 281.11255L549.29376 281.03442Q549.2469 280.2063 548.84064 279.75317Q548.45 279.30005 547.7625 279.30005ZM554.34064 279.48755Q554.09064 279.4563 553.8094 279.4563Q552.73126 279.4563 552.35626 280.36255L552.35626 284.86255L551.27814 284.86255L551.27814 278.5188L552.325 278.5188L552.34064 279.25317Q552.8719 278.40942 553.85626 278.40942Q554.16876 278.40942 554.34064 278.48755L554.34064 279.48755ZM557.35626 283.3938L558.9344 278.5188L560.04376 278.5188L557.7625 284.86255L556.9344 284.86255L554.6375 278.5188L555.7469 278.5188L557.35626 283.3938ZM562.45 284.86255L561.3719 284.86255L561.3719 278.5188L562.45 278.5188L562.45 284.86255ZM561.27814 276.84692Q561.27814 276.5813 561.4344 276.3938Q561.60626 276.2063 561.91876 276.2063Q562.23126 276.2063 562.3875 276.3938Q562.5594 276.5813 562.5594 276.84692Q562.5594 277.09692 562.3875 277.28442Q562.23126 277.4563 561.91876 277.4563Q561.60626 277.4563 561.4344 277.28442Q561.27814 277.09692 561.27814 276.84692ZM566.8094 284.09692Q567.3875 284.09692 567.825 283.75317Q568.2625 283.3938 568.3094 282.86255L569.34064 282.86255Q569.3094 283.40942 568.95 283.90942Q568.60626 284.3938 568.02814 284.69067Q567.46564 284.98755 566.8094 284.98755Q565.5125 284.98755 564.7469 284.12817Q563.9969 283.25317 563.9969 281.75317L563.9969 281.56567Q563.9969 280.6438 564.325 279.92505Q564.66876 279.2063 565.29376 278.81567Q565.9344 278.40942 566.8094 278.40942Q567.8719 278.40942 568.575 279.05005Q569.29376 279.67505 569.34064 280.7063L568.3094 280.7063Q568.2625 280.0813 567.84064 279.69067Q567.41876 279.30005 566.8094 279.30005Q565.98126 279.30005 565.52814 279.8938Q565.075 280.48755 565.075 281.61255L565.075 281.81567Q565.075 282.90942 565.52814 283.50317Q565.98126 284.09692 566.8094 284.09692ZM572.90314 284.98755Q571.60626 284.98755 570.79376 284.1438Q569.9969 283.28442 569.9969 281.86255L569.9969 281.67505Q569.9969 280.72192 570.35626 279.98755Q570.71564 279.23755 571.35626 278.8313Q572.0125 278.40942 572.7625 278.40942Q573.9969 278.40942 574.6844 279.22192Q575.3719 280.03442 575.3719 281.55005L575.3719 282.00317L571.075 282.00317Q571.10626 282.94067 571.6219 283.5188Q572.15314 284.09692 572.96564 284.09692Q573.52814 284.09692 573.91876 283.86255Q574.325 283.62817 574.6375 283.23755L575.29376 283.75317Q574.4969 284.98755 572.90314 284.98755ZM572.7625 279.30005Q572.10626 279.30005 571.65314 279.78442Q571.21564 280.25317 571.1219 281.11255L574.29376 281.11255L574.29376 281.03442Q574.2469 280.2063 573.84064 279.75317Q573.45 279.30005 572.7625 279.30005ZM579.96564 283.17505Q579.96564 282.73755 579.6219 282.50317Q579.29376 282.25317 578.46564 282.0813Q577.65314 281.90942 577.16876 281.65942Q576.6844 281.40942 576.45 281.0813Q576.23126 280.73755 576.23126 280.2688Q576.23126 279.48755 576.8875 278.9563Q577.54376 278.40942 578.575 278.40942Q579.65314 278.40942 580.3094 278.97192Q580.98126 279.5188 580.98126 280.37817L579.90314 280.37817Q579.90314 279.94067 579.5125 279.62817Q579.1375 279.30005 578.575 279.30005Q577.98126 279.30005 577.6375 279.56567Q577.3094 279.81567 577.3094 280.22192Q577.3094 280.61255 577.6219 280.81567Q577.9344 281.0188 578.7469 281.2063Q579.5594 281.37817 580.0594 281.62817Q580.5594 281.87817 580.79376 282.23755Q581.04376 282.59692 581.04376 283.09692Q581.04376 283.9563 580.35626 284.47192Q579.6844 284.98755 578.60626 284.98755Q577.84064 284.98755 577.2469 284.72192Q576.66876 284.44067 576.34064 283.9563Q576.0125 283.47192 576.0125 282.90942L577.09064 282.90942Q577.1219 283.4563 577.52814 283.78442Q577.9344 284.09692 578.60626 284.09692Q579.21564 284.09692 579.59064 283.84692Q579.96564 283.59692 579.96564 283.17505Z" fill-rule="nonzero"/><path fill="#9e9e9e" d="M554.66876 294.94067L551.1375 302.86255L549.9969 302.86255L553.5125 295.22192L548.90314 295.22192L548.90314 294.3313L554.66876 294.3313L554.66876 294.94067ZM561.7469 302.86255L556.15314 302.86255L556.15314 302.0813L559.10626 298.80005Q559.7625 298.05005 560.0125 297.59692Q560.2625 297.12817 560.2625 296.62817Q560.2625 295.9563 559.85626 295.53442Q559.46564 295.09692 558.77814 295.09692Q557.98126 295.09692 557.52814 295.56567Q557.075 296.0188 557.075 296.84692L555.9969 296.84692Q555.9969 295.65942 556.7469 294.94067Q557.5125 294.2063 558.77814 294.2063Q559.98126 294.2063 560.66876 294.8313Q561.35626 295.4563 561.35626 296.50317Q561.35626 297.75317 559.7469 299.50317L557.46564 301.97192L561.7469 301.97192L561.7469 302.86255ZM563.29376 302.30005Q563.29376 302.0188 563.45 301.8313Q563.6219 301.6438 563.95 301.6438Q564.29376 301.6438 564.46564 301.8313Q564.6375 302.0188 564.6375 302.30005Q564.6375 302.56567 564.46564 302.75317Q564.29376 302.92505 563.95 302.92505Q563.6219 302.92505 563.45 302.75317Q563.29376 302.56567 563.29376 302.30005ZM571.66876 294.94067L568.1375 302.86255L566.9969 302.86255L570.5125 295.22192L565.90314 295.22192L565.90314 294.3313L571.66876 294.3313L571.66876 294.94067ZM573.0594 295.97192Q573.0594 295.2063 573.54376 294.7063Q574.04376 294.2063 574.8094 294.2063Q575.59064 294.2063 576.075 294.7063Q576.5594 295.2063 576.5594 296.00317L576.5594 296.42505Q576.5594 297.19067 576.0594 297.69067Q575.575 298.17505 574.825 298.17505Q574.0594 298.17505 573.5594 297.69067Q573.0594 297.19067 573.0594 296.37817L573.0594 295.97192ZM573.8719 296.42505Q573.8719 296.87817 574.1219 297.17505Q574.3875 297.47192 574.825 297.47192Q575.2469 297.47192 575.4969 297.19067Q575.7469 296.8938 575.7469 296.3938L575.7469 295.97192Q575.7469 295.5188 575.4969 295.22192Q575.2469 294.90942 574.8094 294.90942Q574.3719 294.90942 574.1219 295.22192Q573.8719 295.5188 573.8719 295.98755L573.8719 296.42505ZM577.21564 300.7688Q577.21564 300.00317 577.7 299.5188Q578.2 299.0188 578.96564 299.0188Q579.73126 299.0188 580.21564 299.5188Q580.71564 300.00317 580.71564 300.81567L580.71564 301.22192Q580.71564 301.98755 580.23126 302.48755Q579.7469 302.98755 578.98126 302.98755Q578.21564 302.98755 577.71564 302.50317Q577.21564 302.00317 577.21564 301.19067L577.21564 300.7688ZM578.02814 301.22192Q578.02814 301.69067 578.27814 301.98755Q578.54376 302.28442 578.98126 302.28442Q579.40314 302.28442 579.65314 302.00317Q579.90314 301.7063 579.90314 301.2063L579.90314 300.7688Q579.90314 300.30005 579.6375 300.0188Q579.3875 299.72192 578.96564 299.72192Q578.54376 299.72192 578.27814 300.0188Q578.02814 300.30005 578.02814 300.80005L578.02814 301.22192ZM575.075 302.22192L574.45 301.8313L578.6219 295.15942L579.23126 295.55005L575.075 302.22192Z" fill-rule="nonzero"/><path stroke="#757575" stroke-width="1.0" stroke-linecap="butt" d="M581.45 289.36255L472.95 289.36255L419.86377 289.36255" fill-rule="nonzero"/><path fill="#9e9e9e" d="M421.86377 289.36255C421.86377 288.25797 420.96835 287.36255 419.86377 287.36255C418.75922 287.36255 417.86377 288.25797 417.86377 289.36255C417.86377 290.46713 418.75922 291.36255 419.86377 291.36255C420.96835 291.36255 421.86377 290.46713 421.86377 289.36255" fill-rule="nonzero"/></svg>